<?xml version="1.0" standalone="no"?>
<!DOCTYPE svg PUBLIC "-//W3C//DTD SVG 20010904//EN"
 "http://www.w3.org/TR/2001/REC-SVG-20010904/DTD/svg10.dtd">
<svg version="1.0" xmlns="http://www.w3.org/2000/svg"
 width="512.000000pt" height="512.000000pt" viewBox="0 0 512.000000 512.000000"
 preserveAspectRatio="xMidYMid meet">
<metadata>
Created by potrace 1.11, written by Peter Selinger 2001-2013
</metadata>
<g transform="translate(0.000000,512.000000) scale(0.100000,-0.100000)"
fill="#000000" stroke="none">
<path d="M1195 5020 c-296 -5 -346 -8 -390 -24 -196 -72 -339 -219 -404 -414
-28 -82 -42 -169 -151 -907 -187 -1274 -220 -1501 -227 -1545 -10 -65 -9 -73
62 -477 36 -203 65 -377 65 -386 0 -8 -20 -40 -45 -70 l-45 -56 0 -275 0 -276
195 0 195 0 0 -255 0 -255 460 0 460 0 0 255 0 255 1174 0 c646 0 1181 -3
1190 -6 14 -5 16 -37 16 -255 l0 -249 465 0 465 0 0 255 0 255 185 0 185 0 0
284 0 284 -35 38 c-19 22 -38 48 -41 60 -3 12 26 198 65 415 39 217 68 403 66
414 -3 11 -37 236 -75 500 -38 264 -80 557 -94 650 -14 94 -50 341 -81 550
-113 773 -117 794 -197 930 -75 127 -189 224 -323 276 -58 22 -75 23 -450 30
-444 8 -2179 8 -2690 -1z m2420 -392 l0 -283 -1055 0 -1055 0 -3 275 c-1 151
-1 279 2 285 2 7 352 9 1057 8 l1054 -3 0 -282z m-1197 -1235 l-3 -768 -1070
0 c-945 0 -1070 2 -1068 15 4 30 103 803 139 1090 20 162 40 304 44 316 9 22
-14 19 540 79 124 13 241 26 260 28 19 2 288 5 598 5 l562 2 -2 -767z m1649
737 c408 -43 556 -61 574 -71 22 -11 33 -83 150 -1002 35 -282 48 -412 41
-419 -7 -7 -354 -11 -1069 -12 l-1058 -1 -3 768 -2 767 539 0 c529 0 545 -1
828 -30z m-3251 -2355 c25 -15 54 -41 66 -59 l22 -33 51 52 c42 44 60 55 106
65 104 23 212 -29 258 -124 41 -83 18 -191 -55 -254 -98 -87 -240 -76 -323 25
l-31 38 -30 -37 c-40 -48 -121 -88 -179 -88 -119 1 -220 103 -221 223 -1 172
187 279 336 192z m3257 23 c22 -7 63 -33 92 -59 l51 -48 39 41 c57 58 90 72
165 72 71 0 108 -15 154 -61 133 -131 53 -358 -133 -380 -68 -8 -125 15 -183
73 l-46 45 -48 -48 c-118 -117 -284 -90 -360 58 -32 64 -31 120 2 187 51 103
160 152 267 120z m617 -718 l0 -40 -2135 0 -2135 0 0 33 c0 19 3 37 7 40 3 4
964 7 2135 7 l2128 0 0 -40z"/>
</g>
</svg>
